<svg width="26" height="29" viewBox="0 0 26 29" fill="none" xmlns="http://www.w3.org/2000/svg">
<path d="M1 14C1 9.16036 4.43796 5.12371 9.00487 4.19905C9.00163 4.13311 9 4.06675 9 4C9 1.79086 10.7909 1 13 1C15.2091 1 17 1.79086 17 4C17 4.06675 16.9984 4.13311 16.9951 4.19905C21.562 5.12371 25 9.16036 25 14M1 14V18C1 23.5228 5.47715 28 11 28H15C20.5228 28 25 23.5228 25 18V14M1 14C1 8.47715 5.47715 4 11 4H15C20.5228 4 25 8.47715 25 14M9 10V22M17 10V22" stroke="black" stroke-width="2" stroke-linecap="round"/>
</svg>
