<svg width="25" height="25" viewBox="0 0 25 25" fill="none" xmlns="http://www.w3.org/2000/svg">
<path d="M12.2143 14.5C13.1611 14.5 13.9286 13.7325 13.9286 12.7857C13.9286 11.8389 13.1611 11.0714 12.2143 11.0714C11.2675 11.0714 10.5 11.8389 10.5 12.7857C10.5 13.7325 11.2675 14.5 12.2143 14.5Z" fill="black"/>
<path fill-rule="evenodd" clip-rule="evenodd" d="M18.9272 8.22617C18.8951 10.1436 17.7975 13.3279 15.277 15.8484C12.6711 18.4543 9.9564 19.2298 7.33091 19.2144C6.34662 19.2087 5.51149 18.4122 5.51521 17.3826C5.52283 15.2711 6.41084 12.148 8.99369 9.56511C11.6776 6.8812 14.8881 6.35779 17.1138 6.37182C18.1023 6.37805 18.9447 7.18399 18.9272 8.22617ZM15.4987 8.18775C13.8127 8.41883 11.8843 9.09887 10.2059 10.7773C8.58716 12.396 7.75607 14.2451 7.41781 15.7861L7.41746 15.7877C7.39181 15.9047 7.36899 16.0199 7.34889 16.1331C7.26782 16.5895 7.23084 17.0133 7.22948 17.3888C7.22926 17.4506 7.27916 17.4998 7.34091 17.5002C7.85213 17.5032 8.36565 17.4721 8.88082 17.3948C8.9018 17.3916 8.92278 17.3884 8.94376 17.3851C10.6408 17.1182 12.3556 16.3454 14.0648 14.6362C15.6257 13.0753 16.5327 11.2496 16.9444 9.80043L16.9466 9.79273C17.007 9.57921 17.0567 9.37391 17.0961 9.17887C17.1706 8.81048 17.2085 8.47873 17.2132 8.19747C17.2142 8.13572 17.1648 8.08646 17.103 8.08607C16.6459 8.08319 16.149 8.10592 15.6275 8.17091C15.5848 8.17623 15.5417 8.18186 15.4987 8.18775Z" fill="black"/>
<path fill-rule="evenodd" clip-rule="evenodd" d="M9.92857 0.5H15.0714C20.2787 0.5 24.5 4.72132 24.5 9.92857V15.0714C24.5 20.2787 20.2787 24.5 15.0714 24.5H9.92857C4.72131 24.5 0.5 20.2787 0.5 15.0714V9.92857C0.5 4.72131 4.72132 0.5 9.92857 0.5ZM9.92857 2.5C5.82589 2.5 2.5 5.82588 2.5 9.92857V15.0714C2.5 19.1741 5.82588 22.5 9.92857 22.5H15.0714C19.1741 22.5 22.5 19.1741 22.5 15.0714V9.92857C22.5 5.82589 19.1741 2.5 15.0714 2.5H9.92857Z" fill="black"/>
</svg>
