<svg width="34" height="25" viewBox="0 0 34 25" fill="none" xmlns="http://www.w3.org/2000/svg">
<path fill-rule="evenodd" clip-rule="evenodd" d="M17.3103 9.57447C14.669 9.57447 12.5278 11.7178 12.5278 14.3617C12.5278 17.0056 14.669 19.1489 17.3103 19.1489C19.9517 19.1489 22.0929 17.0056 22.0929 14.3617C22.0929 11.7178 19.9517 9.57447 17.3103 9.57447ZM13.5906 14.3617C13.5906 12.3053 15.256 10.6383 17.3103 10.6383C19.3647 10.6383 21.0301 12.3053 21.0301 14.3617C21.0301 16.4181 19.3647 18.0851 17.3103 18.0851C15.256 18.0851 13.5906 16.4181 13.5906 14.3617Z" fill="black"/>
<path fill-rule="evenodd" clip-rule="evenodd" d="M33.7834 10.3723C31.6996 5.93981 22.6242 5.07448e-05 17.3103 2.91207e-10C11.9963 -5.0742e-05 2.31866 6.63123 0.192984 10.6206C-0.399804 11.7331 0.371507 11.9192 2.52847 11.9503C3.31343 11.9616 4.55691 12.5128 4.55691 13.2979V13.2979V16.4894C4.55691 21.1897 8.36351 25 13.0592 25H21.5615C26.2572 25 30.0638 21.1897 30.0638 16.4894V13.2979V13.2979C30.0638 12.5568 30.6646 11.9171 31.4037 11.8632C33.9453 11.6777 34.3309 11.5369 33.7834 10.3723ZM6.68391 13.1611C6.6908 12.8309 6.64432 12.4994 6.51179 12.1969V12.1969C6.29318 11.6978 5.87347 11.3147 5.35661 11.1423L4.53877 10.8696V10.8696C3.97138 10.7437 3.86196 9.83662 4.27715 9.42994C5.57576 8.15796 7.55124 6.67503 9.34476 5.44564C12.3178 3.40771 15.3223 2.12764 17.3102 2.12766C19.3596 2.12768 22.5278 3.33087 25.6025 5.28651C27.8762 6.73268 31.5469 8.8407 30.9083 10.0562C30.7744 10.3112 30.4777 10.4296 30.1988 10.5014C30.1862 10.5046 30.1731 10.5079 30.1594 10.5112C29.815 10.5947 29.482 10.7215 29.1868 10.9174V10.9174C28.7021 11.2392 28.3341 11.7088 28.1375 12.2564L28.0733 12.4351C27.9742 12.7111 27.9382 13.0046 27.9382 13.2979V13.2979V16.4894C27.9382 20.0146 25.0832 22.8723 21.5615 22.8723H13.0592C9.53743 22.8723 6.68248 20.0146 6.68248 16.4894V13.2979C6.68248 13.2521 6.68296 13.2066 6.68391 13.1611ZM3.0026 9.69804C3.00059 9.69668 3.00073 9.69649 3.0026 9.69804V9.69804V9.69804Z" fill="black"/>
</svg>
