<svg width="24" height="30" viewBox="0 0 24 30" fill="none" xmlns="http://www.w3.org/2000/svg">
<path d="M8.49541 25.1943L8.43154 25.2443L8.3768 25.3037L8.37673 25.3038L8.3767 25.3038L8.37657 25.3039L8.37553 25.3051L8.36933 25.3117L8.34191 25.3411C8.3171 25.3675 8.27948 25.4072 8.23026 25.4584C8.13178 25.5609 7.9872 25.709 7.80627 25.8875C7.44333 26.2457 6.93939 26.7213 6.37152 27.1962C5.80012 27.6741 5.18414 28.1343 4.59628 28.474C3.99342 28.8224 3.52464 28.982 3.21365 28.9952C2.08194 28.9934 1.55768 28.821 1.31918 28.6455C1.16382 28.5311 1 28.3204 1 27.6555V4.82714C1 2.67072 2.66046 1 4.61538 1H19.3846C21.3395 1 23 2.67072 23 4.82714V27.3739C23 28.2931 22.7923 28.5754 22.6352 28.6978C22.4129 28.8711 21.9222 29.0282 20.7982 28.9956C20.4682 28.986 19.9852 28.8238 19.3754 28.473C18.7864 28.1342 18.1737 27.6752 17.6073 27.1983C17.0444 26.7243 16.547 26.2497 16.1895 25.8922C16.0113 25.714 15.8692 25.5662 15.7725 25.4641C15.7242 25.413 15.6873 25.3734 15.663 25.3471L15.6363 25.318L15.6302 25.3114L15.6293 25.3104L15.6291 25.3102L15.6291 25.3101L15.5719 25.247L15.5046 25.1943L15.4621 25.161C14.7763 24.6239 14.2002 24.1727 13.7042 23.862C13.1908 23.5403 12.6374 23.2853 12 23.2853C11.3626 23.2853 10.8092 23.5403 10.2958 23.862C9.79978 24.1727 9.22366 24.6239 8.53787 25.161L8.49541 25.1943Z" stroke="black" stroke-width="2"/>
</svg>
